<svg xmlns="http://www.w3.org/2000/svg" xmlns:xlink="http://www.w3.org/1999/xlink" width="500" zoomAndPan="magnify" viewBox="0 0 375 374.999991" height="500" preserveAspectRatio="xMidYMid meet" version="1.0"><path fill="#d8e900" d="M 107.210938 348.746094 C 107.210938 348.746094 105.199219 349.199219 103.089844 349.132812 C 101.023438 349.074219 96.503906 348.476562 97.535156 348.484375 C 98.5625 348.488281 99.859375 346.644531 99.859375 346.644531 L 98.0625 346.378906 L 98.019531 344.9375 L 100.902344 344.902344 L 120.964844 301.320312 C 120.964844 301.320312 123.4375 301.285156 123.488281 301.078125 C 121.019531 301.015625 119.371094 301.160156 119.167969 300.847656 C 119.324219 300.4375 140.890625 252.613281 141.480469 251.570312 C 141.742188 251.105469 143.847656 251.375 143.847656 251.375 L 145.773438 239.035156 L 144.125 238.976562 C 144.125 238.976562 147.929688 213.003906 147.472656 212.28125 C 147.011719 211.558594 119.058594 212.789062 100.125 211.445312 C 81.195312 210.101562 71.015625 207.929688 67.367188 206.984375 C 63.960938 206.101562 63.199219 206.804688 61.75 208.445312 C 60.296875 210.082031 35.609375 243.03125 33.484375 245.800781 C 31.394531 248.519531 30.449219 248.5625 29.195312 248.554688 C 27.550781 248.546875 16.691406 248.535156 16.691406 248.535156 L 28.175781 202.539062 C 28.175781 202.539062 23.597656 202.253906 22.933594 201.582031 C 22.265625 200.90625 22.53125 199.519531 22.53125 199.519531 C 22.53125 199.519531 13.015625 198.539062 12.402344 198.023438 C 11.785156 197.503906 11.484375 196.628906 11.484375 196.628906 C 11.484375 196.628906 1.675781 194.515625 1.421875 193.570312 L 1.410156 193.570312 C 1.410156 193.5625 1.417969 193.554688 1.417969 193.550781 C 1.417969 193.542969 1.410156 193.535156 1.410156 193.53125 L 1.425781 193.53125 C 1.6875 192.589844 11.515625 190.589844 11.515625 190.589844 C 11.515625 190.589844 11.832031 189.71875 12.453125 189.207031 C 13.074219 188.695312 22.597656 187.824219 22.597656 187.824219 C 22.597656 187.824219 22.347656 186.433594 23.023438 185.769531 C 23.695312 185.101562 28.277344 184.871094 28.277344 184.871094 L 17.324219 138.746094 C 17.324219 138.746094 28.183594 138.859375 29.828125 138.871094 C 31.082031 138.875 32.027344 138.933594 34.082031 141.671875 C 36.175781 144.464844 60.484375 177.695312 61.917969 179.351562 C 63.347656 181.007812 64.101562 181.722656 67.519531 180.875 C 71.175781 179.972656 81.378906 177.921875 100.324219 176.792969 C 119.273438 175.667969 147.210938 177.21875 147.675781 176.5 C 148.144531 175.785156 144.640625 149.773438 144.640625 149.773438 L 146.285156 149.730469 L 144.503906 137.367188 C 144.503906 137.367188 142.394531 137.613281 142.140625 137.148438 C 141.5625 136.097656 120.550781 88.027344 120.398438 87.617188 C 120.605469 87.308594 122.25 87.472656 124.71875 87.433594 C 124.671875 87.226562 122.199219 87.164062 122.199219 87.164062 L 102.636719 43.351562 L 99.753906 43.285156 L 99.816406 41.84375 L 101.617188 41.597656 C 101.617188 41.597656 100.339844 39.738281 99.3125 39.730469 C 98.285156 39.726562 102.808594 39.183594 104.875 39.148438 C 106.984375 39.109375 108.988281 39.582031 108.988281 39.582031 C 108.988281 39.582031 108.535156 38.085938 110.492188 38.253906 C 111.738281 38.359375 117.414062 42.257812 117.414062 42.257812 C 117.414062 42.257812 118.265625 42.535156 118.871094 42.492188 C 119.574219 42.441406 120.019531 43.300781 120.417969 43.753906 C 120.648438 44.015625 121.925781 43.734375 121.925781 43.734375 C 121.925781 43.734375 134.257812 58.285156 153.5625 83.484375 C 172.839844 108.644531 196.480469 138.421875 196.480469 138.421875 C 196.480469 138.421875 197.851562 138.429688 199.773438 138.167969 C 201.695312 137.90625 202.523438 137.703125 202.523438 137.703125 C 202.523438 137.703125 203.011719 136.199219 204.25 135.792969 C 205.171875 135.492188 211.871094 134.738281 217.910156 134.910156 C 223.949219 135.082031 227.101562 135.445312 228.0625 135.863281 C 229.019531 136.277344 229.4375 137.671875 229.6875 139.4375 C 229.949219 141.292969 229.738281 148.480469 229.488281 150.210938 C 229.25 151.855469 228.992188 152.886719 226.65625 153.148438 C 224.324219 153.40625 216.292969 153.429688 213 153.203125 C 210.65625 153.042969 207.996094 152.421875 207.855469 152.761719 C 207.71875 153.105469 213.515625 159.109375 215.832031 162.417969 C 218.144531 165.722656 222.984375 171.378906 224.488281 172.074219 C 225.996094 172.769531 226.199219 172.839844 224.824219 173.242188 C 223.449219 173.644531 222.078125 173.570312 221.121094 173.015625 C 220.164062 172.460938 218.929688 172.179688 218.378906 172.722656 C 218.171875 172.929688 219.535156 174.582031 220.355469 175 C 221.175781 175.417969 222.757812 175.011719 223.441406 175.292969 C 224.125 175.570312 226.113281 176.65625 227.757812 176.621094 C 237.574219 176.402344 252.257812 176.15625 284.375 176.261719 C 318.738281 176.375 329.003906 176.773438 347.339844 181.222656 C 363.984375 185.257812 367.265625 188.238281 369.660156 189.765625 C 371.875 191.179688 373.582031 194.355469 373.605469 195.675781 L 373.609375 195.675781 C 373.609375 195.683594 373.605469 195.691406 373.605469 195.695312 C 373.605469 195.703125 373.609375 195.710938 373.609375 195.714844 L 373.605469 195.714844 C 373.566406 197.039062 371.820312 200.191406 369.59375 201.578125 C 367.179688 203.082031 363.867188 206.023438 347.175781 209.867188 C 328.789062 214.101562 318.519531 214.382812 284.15625 214.101562 C 252.042969 213.839844 237.359375 213.421875 227.546875 213.089844 C 225.902344 213.035156 223.90625 214.097656 223.21875 214.367188 C 222.53125 214.640625 220.953125 214.21875 220.128906 214.625 C 219.300781 215.03125 217.917969 216.671875 218.125 216.878906 C 218.671875 217.429688 219.90625 217.164062 220.871094 216.621094 C 221.832031 216.074219 223.207031 216.015625 224.578125 216.433594 C 225.945312 216.855469 225.738281 216.921875 224.226562 217.601562 C 222.714844 218.277344 217.808594 223.875 215.457031 227.15625 C 213.105469 230.4375 207.238281 236.375 207.375 236.71875 C 207.507812 237.0625 210.175781 236.46875 212.523438 236.335938 C 215.816406 236.148438 223.84375 236.261719 226.175781 236.550781 C 228.507812 236.839844 228.753906 237.871094 228.972656 239.519531 C 229.207031 241.25 229.332031 248.441406 229.046875 250.292969 C 228.777344 252.054688 228.34375 253.445312 227.382812 253.851562 C 226.417969 254.257812 223.257812 254.582031 217.21875 254.683594 C 211.179688 254.785156 204.488281 253.957031 203.570312 253.644531 C 202.335938 253.226562 201.867188 251.714844 201.867188 251.714844 C 201.867188 251.714844 201.042969 251.503906 199.125 251.21875 C 197.203125 250.929688 195.832031 250.921875 195.832031 250.921875 C 195.832031 250.921875 171.847656 280.429688 152.285156 305.363281 C 132.691406 330.339844 120.191406 344.75 120.191406 344.75 C 120.191406 344.75 118.917969 344.449219 118.6875 344.710938 C 118.28125 345.160156 117.824219 346.015625 117.125 345.953125 C 116.519531 345.902344 115.664062 346.171875 115.664062 346.171875 C 115.664062 346.171875 109.941406 350.003906 108.695312 350.097656 C 106.738281 350.238281 107.210938 348.75 107.210938 348.75 Z M 123.375 48.660156 L 121.167969 45.746094 L 120.839844 45.996094 L 123.066406 48.933594 Z M 127.800781 54.503906 L 123.625 48.988281 L 123.316406 49.261719 L 127.472656 54.753906 Z M 132.234375 60.359375 L 128.050781 54.832031 L 127.722656 55.082031 L 131.882812 60.574219 Z M 137.824219 67.738281 L 132.484375 60.691406 L 132.132812 60.90625 L 137.488281 67.980469 Z M 142.972656 74.542969 L 138.070312 68.066406 L 137.738281 68.304688 L 142.644531 74.789062 Z M 148.183594 81.417969 L 143.222656 74.871094 L 142.894531 75.117188 L 147.84375 81.65625 L 148.179688 81.417969 Z M 153.570312 88.53125 L 148.429688 81.746094 L 148.09375 81.980469 L 153.265625 88.808594 Z M 159.003906 95.707031 L 153.816406 88.859375 L 153.511719 89.140625 L 158.664062 95.941406 Z M 164.394531 102.824219 L 159.253906 96.035156 L 158.910156 96.269531 L 164.035156 103.035156 Z M 169.742188 109.890625 L 164.644531 103.15625 L 164.285156 103.363281 L 169.40625 110.125 L 169.746094 109.890625 Z M 174.886719 116.683594 L 169.996094 110.21875 L 169.65625 110.453125 L 174.558594 116.925781 Z M 180.023438 123.46875 L 175.136719 117.011719 L 174.804688 117.257812 L 179.667969 123.679688 Z M 186.082031 131.460938 L 180.277344 123.796875 L 179.917969 124.007812 L 185.695312 131.636719 L 186.082031 131.464844 Z M 187.664062 133.554688 L 186.335938 131.800781 L 185.949219 131.972656 L 187.269531 133.714844 Z M 192.621094 140.101562 L 187.921875 133.894531 L 187.527344 134.054688 L 192.292969 140.351562 Z M 191.992188 249.1875 L 191.667969 248.9375 L 186.828125 255.179688 L 187.21875 255.34375 Z M 186.960938 255.679688 L 186.566406 255.515625 L 185.226562 257.242188 L 185.609375 257.417969 Z M 185.351562 257.753906 L 184.96875 257.574219 L 179.105469 265.136719 L 179.460938 265.347656 Z M 179.207031 265.675781 L 178.851562 265.460938 L 173.914062 271.828125 L 174.242188 272.078125 Z M 173.988281 272.402344 L 173.664062 272.152344 L 168.6875 278.570312 L 169.023438 278.808594 Z M 168.769531 279.136719 L 168.433594 278.898438 L 163.234375 285.597656 L 163.59375 285.8125 Z M 163.335938 286.136719 L 162.980469 285.925781 L 157.78125 292.632812 L 158.117188 292.867188 Z M 157.867188 293.191406 L 157.53125 292.957031 L 152.300781 299.695312 L 152.601562 299.980469 Z M 152.347656 300.308594 L 152.046875 300.027344 L 146.796875 306.792969 L 147.132812 307.03125 Z M 146.878906 307.355469 L 146.546875 307.117188 L 141.519531 313.597656 L 141.847656 313.847656 Z M 141.59375 314.171875 L 141.269531 313.921875 L 136.285156 320.347656 L 136.617188 320.589844 Z M 136.363281 320.917969 L 136.035156 320.675781 L 130.597656 327.683594 L 130.949219 327.90625 Z M 130.691406 328.230469 L 130.34375 328.011719 L 126.121094 333.453125 L 126.445312 333.710938 Z M 126.191406 334.035156 L 125.867188 333.78125 L 121.644531 339.222656 L 121.953125 339.503906 Z M 121.699219 339.828125 L 121.390625 339.550781 L 119.132812 342.464844 L 119.457031 342.714844 Z M 121.699219 339.828125 " fill-opacity="1" fill-rule="evenodd"/></svg>