<svg xmlns="http://www.w3.org/2000/svg" xmlns:xlink="http://www.w3.org/1999/xlink" width="1920" zoomAndPan="magnify" viewBox="0 0 1440 1439.999935" height="1920" preserveAspectRatio="xMidYMid meet" version="1.0"><path fill="#d8e900" d="M 359.527344 937.035156 C 363.300781 933.261719 367.078125 933.261719 370.851562 937.035156 C 374.625 940.8125 374.625 944.585938 370.851562 948.359375 C 359.527344 963.457031 340.65625 971.007812 321.78125 978.558594 C 302.910156 982.332031 284.035156 982.332031 265.164062 974.78125 C 238.742188 967.234375 219.867188 948.359375 208.542969 925.714844 C 197.222656 903.066406 193.445312 876.644531 200.996094 850.222656 C 204.769531 846.445312 208.542969 842.671875 212.320312 846.445312 C 216.09375 846.445312 219.867188 850.222656 216.09375 853.996094 C 216.09375 857.769531 216.09375 857.769531 216.09375 857.769531 C 212.320312 880.417969 212.320312 899.292969 223.644531 918.164062 C 231.191406 937.035156 250.066406 952.136719 272.710938 959.683594 C 287.8125 967.234375 302.910156 967.234375 318.007812 963.457031 C 333.105469 959.683594 348.203125 952.136719 359.527344 937.035156 Z M 684.140625 1038.949219 C 691.691406 1038.949219 695.464844 1035.175781 695.464844 1023.851562 L 695.464844 1001.203125 C 695.464844 993.65625 691.691406 986.105469 684.140625 986.105469 C 672.816406 986.105469 669.042969 993.65625 669.042969 1001.203125 L 669.042969 1023.851562 C 669.042969 1035.175781 672.816406 1038.949219 684.140625 1038.949219 Z M 759.632812 1038.949219 C 767.179688 1038.949219 774.730469 1035.175781 774.730469 1023.851562 L 774.730469 1001.203125 C 774.730469 993.65625 767.179688 986.105469 759.632812 986.105469 C 752.082031 986.105469 744.535156 993.65625 744.535156 1001.203125 L 744.535156 1023.851562 C 744.535156 1035.175781 752.082031 1038.949219 759.632812 1038.949219 Z M 733.210938 933.261719 L 733.210938 925.714844 C 733.210938 918.164062 729.4375 914.390625 721.886719 914.390625 C 714.335938 914.390625 706.789062 918.164062 706.789062 925.714844 L 706.789062 1023.851562 C 706.789062 1035.175781 714.335938 1038.949219 721.886719 1038.949219 C 729.4375 1038.949219 733.210938 1035.175781 733.210938 1023.851562 Z M 767.179688 880.417969 C 774.730469 880.417969 782.28125 887.96875 782.28125 895.515625 C 782.28125 903.066406 774.730469 906.839844 767.179688 906.839844 C 759.632812 906.839844 752.082031 903.066406 752.082031 895.515625 C 752.082031 887.96875 759.632812 880.417969 767.179688 880.417969 Z M 672.816406 880.417969 C 680.367188 880.417969 687.914062 887.96875 687.914062 895.515625 C 687.914062 903.066406 680.367188 906.839844 672.816406 906.839844 C 665.269531 906.839844 661.492188 903.066406 661.492188 895.515625 C 661.492188 887.96875 665.269531 880.417969 672.816406 880.417969 Z M 721.886719 401.046875 C 733.210938 401.046875 744.535156 468.988281 748.308594 559.578125 C 748.308594 559.578125 744.535156 563.355469 740.757812 563.355469 C 736.984375 563.355469 729.4375 559.578125 721.886719 559.578125 C 721.886719 559.578125 718.113281 559.578125 718.113281 559.578125 C 714.335938 559.578125 706.789062 563.355469 699.238281 563.355469 C 695.464844 563.355469 695.464844 559.578125 695.464844 559.578125 C 699.238281 468.988281 706.789062 401.046875 721.886719 401.046875 Z M 574.679688 680.367188 C 540.707031 793.601562 586.003906 861.546875 653.945312 887.96875 C 653.945312 880.417969 665.269531 872.871094 672.816406 872.871094 C 687.914062 872.871094 695.464844 880.417969 695.464844 895.515625 C 695.464844 895.515625 695.464844 899.292969 695.464844 899.292969 C 703.015625 899.292969 710.5625 903.066406 718.113281 903.066406 C 718.113281 903.066406 721.886719 903.066406 721.886719 903.066406 C 729.4375 903.066406 736.984375 899.292969 744.535156 899.292969 C 744.535156 899.292969 744.535156 895.515625 744.535156 895.515625 C 744.535156 880.417969 755.859375 872.871094 767.179688 872.871094 C 778.503906 872.871094 786.054688 880.417969 786.054688 887.96875 C 853.996094 861.546875 903.066406 793.601562 869.09375 680.367188 C 846.449219 608.648438 782.28125 574.679688 721.886719 570.902344 C 721.886719 570.902344 718.113281 570.902344 718.113281 570.902344 C 657.71875 574.679688 597.324219 608.648438 574.679688 680.367188 Z M 680.367188 786.054688 C 676.589844 797.378906 676.589844 812.476562 676.589844 823.800781 C 680.367188 831.347656 684.140625 842.671875 691.691406 846.445312 C 695.464844 850.222656 699.238281 853.996094 706.789062 853.996094 C 710.5625 853.996094 714.335938 857.769531 721.886719 857.769531 C 725.660156 857.769531 729.4375 853.996094 736.984375 853.996094 C 740.757812 853.996094 744.535156 850.222656 748.308594 846.445312 C 755.859375 842.671875 759.632812 831.347656 763.40625 823.800781 C 767.179688 812.476562 763.40625 797.378906 759.632812 786.054688 C 759.632812 778.503906 752.082031 774.730469 740.757812 770.957031 C 733.210938 767.179688 729.4375 767.179688 721.886719 767.179688 C 714.335938 767.179688 706.789062 767.179688 699.238281 770.957031 C 691.691406 774.730469 684.140625 778.503906 680.367188 786.054688 Z M 669.042969 823.800781 C 665.269531 812.476562 665.269531 797.378906 669.042969 782.28125 C 672.816406 770.957031 684.140625 763.40625 695.464844 759.632812 C 703.015625 755.859375 714.335938 755.859375 721.886719 755.859375 C 729.4375 755.859375 736.984375 755.859375 744.535156 759.632812 C 755.859375 763.40625 767.179688 770.957031 770.957031 782.28125 C 774.730469 797.378906 774.730469 812.476562 774.730469 823.800781 C 770.957031 835.125 763.40625 846.445312 755.859375 853.996094 C 752.082031 857.769531 744.535156 861.546875 736.984375 865.320312 C 733.210938 865.320312 725.660156 865.320312 721.886719 865.320312 C 714.335938 865.320312 706.789062 865.320312 703.015625 865.320312 C 695.464844 861.546875 691.691406 857.769531 684.140625 853.996094 C 676.589844 846.445312 669.042969 835.125 669.042969 823.800781 Z M 642.621094 684.140625 L 612.425781 684.140625 C 612.425781 684.140625 604.875 684.140625 601.101562 691.691406 C 597.324219 703.011719 589.777344 714.335938 589.777344 721.886719 L 589.777344 725.660156 C 593.550781 725.660156 593.550781 725.660156 593.550781 725.660156 C 597.324219 729.433594 601.101562 733.210938 604.875 729.433594 C 612.425781 725.660156 616.199219 721.886719 623.746094 718.113281 C 635.070312 718.113281 638.847656 718.113281 638.847656 710.5625 C 642.621094 703.011719 653.945312 684.140625 642.621094 684.140625 Z M 736.984375 718.113281 C 752.082031 718.113281 767.179688 714.335938 786.054688 714.335938 C 786.054688 714.335938 786.054688 714.335938 786.054688 710.5625 C 786.054688 710.5625 774.730469 687.914062 774.730469 687.914062 C 774.730469 687.914062 774.730469 684.140625 770.957031 684.140625 C 767.179688 684.140625 733.210938 684.140625 733.210938 684.140625 C 733.210938 684.140625 729.4375 684.140625 729.4375 687.914062 L 729.4375 710.5625 C 729.4375 710.5625 729.4375 718.113281 736.984375 718.113281 Z M 736.984375 725.660156 C 733.210938 725.660156 729.4375 729.433594 729.4375 733.210938 C 729.4375 736.984375 733.210938 740.757812 736.984375 740.757812 C 740.757812 740.757812 744.535156 736.984375 744.535156 733.210938 C 744.535156 729.433594 740.757812 725.660156 736.984375 725.660156 Z M 797.378906 684.140625 L 831.347656 684.140625 C 831.347656 684.140625 835.125 684.140625 838.898438 691.691406 C 846.449219 703.011719 853.996094 714.335938 850.222656 721.886719 L 850.222656 725.660156 L 846.449219 725.660156 L 846.449219 729.433594 C 846.449219 729.433594 838.898438 733.210938 835.125 729.433594 C 827.574219 725.660156 823.800781 721.886719 816.25 718.113281 C 808.703125 718.113281 804.925781 718.113281 801.152344 710.5625 C 797.378906 703.011719 786.054688 684.140625 797.378906 684.140625 Z M 706.789062 718.113281 C 687.914062 718.113281 672.816406 714.335938 657.71875 714.335938 C 657.71875 714.335938 653.945312 714.335938 653.945312 710.5625 C 657.71875 710.5625 665.269531 687.914062 665.269531 687.914062 C 665.269531 687.914062 665.269531 684.140625 669.042969 684.140625 C 672.816406 684.140625 710.5625 684.140625 710.5625 684.140625 C 710.5625 684.140625 714.335938 684.140625 714.335938 687.914062 L 714.335938 710.5625 C 714.335938 710.5625 710.5625 718.113281 706.789062 718.113281 Z M 706.789062 725.660156 C 710.5625 725.660156 710.5625 729.433594 710.5625 733.210938 C 710.5625 736.984375 710.5625 740.757812 706.789062 740.757812 C 703.015625 740.757812 699.238281 736.984375 699.238281 733.210938 C 699.238281 729.433594 703.015625 725.660156 706.789062 725.660156 Z M 921.9375 903.066406 L 921.9375 899.292969 C 921.9375 891.742188 925.714844 884.191406 933.261719 884.191406 C 940.8125 884.191406 948.359375 891.742188 948.359375 899.292969 L 948.359375 903.066406 L 1001.203125 899.292969 L 1001.203125 887.96875 C 1001.203125 880.417969 1004.980469 876.644531 1012.527344 876.644531 C 1020.078125 876.644531 1023.851562 880.417969 1023.851562 887.96875 L 1023.851562 895.515625 L 1050.273438 891.742188 C 1050.273438 891.742188 1054.050781 891.742188 1054.050781 895.515625 C 1057.824219 903.066406 1057.824219 910.613281 1061.597656 918.164062 C 1061.597656 918.164062 1065.371094 921.9375 1057.824219 921.9375 L 948.359375 937.035156 L 948.359375 993.65625 C 948.359375 1001.203125 940.8125 1004.980469 933.261719 1004.980469 C 925.714844 1004.980469 921.9375 1001.203125 921.9375 993.65625 L 921.9375 940.8125 L 838.898438 952.136719 C 831.347656 952.136719 823.800781 944.585938 820.027344 937.035156 C 820.027344 925.714844 827.574219 918.164062 835.125 918.164062 L 921.9375 906.839844 Z M 971.007812 1004.980469 C 963.460938 1004.980469 955.910156 1001.203125 955.910156 993.65625 L 955.910156 967.234375 C 955.910156 959.683594 963.460938 955.910156 971.007812 955.910156 C 978.558594 955.910156 986.105469 959.683594 986.105469 967.234375 L 986.105469 993.65625 C 986.105469 1001.203125 978.558594 1004.980469 971.007812 1004.980469 Z M 895.515625 1004.980469 C 887.96875 1004.980469 880.417969 1001.203125 880.417969 993.65625 L 880.417969 967.234375 C 880.417969 959.683594 887.96875 955.910156 895.515625 955.910156 C 903.066406 955.910156 910.613281 959.683594 910.613281 967.234375 L 910.613281 993.65625 C 910.613281 1001.203125 903.066406 1004.980469 895.515625 1004.980469 Z M 899.292969 710.5625 C 1001.203125 695.464844 1133.316406 672.816406 1140.863281 680.367188 C 1148.414062 687.914062 1012.527344 729.433594 903.066406 759.632812 C 891.742188 763.40625 891.742188 748.308594 891.742188 748.308594 C 891.742188 740.757812 891.742188 729.433594 887.96875 721.886719 C 887.96875 714.335938 895.515625 710.5625 899.292969 710.5625 Z M 1140.863281 801.152344 C 1099.34375 801.152344 1065.371094 835.125 1065.371094 876.644531 C 1065.371094 918.164062 1099.34375 948.359375 1140.863281 948.359375 C 1182.382812 948.359375 1212.582031 918.164062 1212.582031 876.644531 C 1212.582031 835.125 1182.382812 801.152344 1140.863281 801.152344 Z M 1140.863281 857.769531 C 1129.539062 857.769531 1121.992188 865.320312 1121.992188 876.644531 C 1121.992188 887.96875 1129.539062 895.515625 1140.863281 895.515625 C 1152.1875 895.515625 1159.738281 887.96875 1159.738281 876.644531 C 1159.738281 865.320312 1152.1875 857.769531 1140.863281 857.769531 Z M 903.066406 789.828125 C 1061.597656 770.957031 1325.816406 744.535156 1344.691406 763.40625 C 1363.5625 782.28125 1310.71875 804.925781 1223.90625 827.574219 C 1220.128906 827.574219 1216.355469 827.574219 1212.582031 823.800781 C 1212.582031 823.800781 1208.804688 823.800781 1208.804688 820.023438 C 1193.707031 801.152344 1167.285156 789.828125 1140.863281 789.828125 C 1103.117188 789.828125 1069.148438 812.476562 1057.824219 850.222656 C 1057.824219 850.222656 1054.050781 857.769531 1046.5 861.546875 C 1038.949219 861.546875 1027.625 861.546875 1020.078125 861.546875 C 955.910156 872.871094 895.515625 876.644531 850.222656 880.417969 C 835.125 884.191406 842.671875 872.871094 842.671875 872.871094 C 865.320312 853.996094 880.417969 827.574219 887.96875 797.378906 C 891.742188 789.828125 903.066406 789.828125 903.066406 789.828125 Z M 1080.472656 937.035156 C 1080.472656 933.261719 1072.921875 933.261719 1069.148438 937.035156 C 1069.148438 940.8125 1069.148438 944.585938 1069.148438 948.359375 C 1084.246094 963.457031 1099.34375 971.007812 1118.214844 978.558594 C 1137.089844 982.332031 1155.960938 982.332031 1174.835938 974.78125 C 1201.257812 967.234375 1220.128906 948.359375 1231.453125 925.714844 C 1242.777344 903.066406 1246.550781 876.644531 1239.003906 850.222656 C 1239.003906 846.445312 1231.453125 842.671875 1227.679688 846.445312 C 1223.90625 846.445312 1223.90625 850.222656 1223.90625 853.996094 C 1223.90625 857.769531 1223.90625 857.769531 1223.90625 857.769531 C 1231.453125 880.417969 1227.679688 899.292969 1220.128906 918.164062 C 1208.804688 937.035156 1193.707031 952.136719 1171.0625 959.683594 C 1155.960938 967.234375 1137.089844 967.234375 1121.992188 963.457031 C 1106.894531 959.683594 1095.570312 952.136719 1084.246094 940.8125 C 1084.246094 937.035156 1080.472656 937.035156 1080.472656 937.035156 Z M 521.835938 903.066406 L 521.835938 899.292969 C 521.835938 891.742188 514.285156 884.191406 506.734375 884.191406 C 499.1875 884.191406 495.414062 891.742188 495.414062 899.292969 L 495.414062 903.066406 L 442.566406 899.292969 L 442.566406 887.96875 C 442.566406 880.417969 435.019531 876.644531 427.46875 876.644531 C 419.921875 876.644531 416.144531 880.417969 416.144531 887.96875 L 416.144531 895.515625 L 393.5 891.742188 C 393.5 891.742188 385.949219 891.742188 385.949219 895.515625 C 385.949219 903.066406 382.175781 910.613281 378.402344 918.164062 C 378.402344 918.164062 374.625 921.9375 382.175781 921.9375 L 495.414062 937.035156 L 495.414062 993.65625 C 495.414062 1001.203125 499.1875 1004.980469 506.734375 1004.980469 C 514.285156 1004.980469 521.835938 1001.203125 521.835938 993.65625 L 521.835938 940.8125 L 601.101562 952.136719 C 612.425781 952.136719 619.972656 944.585938 619.972656 937.035156 C 619.972656 925.714844 616.199219 918.164062 604.875 918.164062 L 521.835938 906.839844 Z M 468.992188 1004.980469 C 476.539062 1004.980469 484.089844 1001.203125 484.089844 993.65625 L 484.089844 967.234375 C 484.089844 959.683594 476.539062 955.910156 468.992188 955.910156 C 461.441406 955.910156 453.890625 959.683594 453.890625 967.234375 L 453.890625 993.65625 C 453.890625 1001.203125 461.441406 1004.980469 468.992188 1004.980469 Z M 544.480469 1004.980469 C 552.03125 1004.980469 559.578125 1001.203125 559.578125 993.65625 L 559.578125 967.234375 C 559.578125 959.683594 552.03125 955.910156 544.480469 955.910156 C 536.933594 955.910156 533.15625 959.683594 533.15625 967.234375 L 533.15625 993.65625 C 533.15625 1001.203125 536.933594 1004.980469 544.480469 1004.980469 Z M 540.707031 710.5625 C 438.792969 695.464844 306.683594 672.816406 299.132812 680.367188 C 291.585938 687.914062 427.46875 729.433594 536.933594 759.632812 C 548.257812 763.40625 548.257812 748.308594 548.257812 748.308594 C 548.257812 740.757812 552.03125 729.433594 552.03125 721.886719 C 552.03125 714.335938 544.480469 710.5625 540.707031 710.5625 Z M 299.132812 801.152344 C 340.65625 801.152344 374.625 835.125 374.625 876.644531 C 374.625 918.164062 340.65625 948.359375 299.132812 948.359375 C 261.390625 948.359375 227.417969 918.164062 227.417969 876.644531 C 227.417969 835.125 261.390625 801.152344 299.132812 801.152344 Z M 299.132812 857.769531 C 310.457031 857.769531 318.007812 865.320312 318.007812 876.644531 C 318.007812 887.96875 310.457031 895.515625 299.132812 895.515625 C 291.585938 895.515625 284.035156 887.96875 284.035156 876.644531 C 284.035156 865.320312 291.585938 857.769531 299.132812 857.769531 Z M 536.933594 789.828125 C 378.402344 770.957031 114.179688 744.535156 95.308594 763.40625 C 76.433594 782.28125 133.054688 804.925781 216.09375 827.574219 C 219.867188 827.574219 227.417969 827.574219 227.417969 823.800781 C 227.417969 823.800781 227.417969 823.800781 231.191406 823.800781 C 231.191406 823.800781 231.191406 823.800781 231.191406 820.023438 C 246.289062 801.152344 272.710938 789.828125 299.132812 789.828125 C 340.65625 789.828125 374.625 812.476562 385.949219 850.222656 C 385.949219 850.222656 385.949219 857.769531 397.273438 861.546875 C 404.824219 861.546875 412.371094 861.546875 419.921875 861.546875 C 487.863281 872.871094 544.480469 876.644531 593.550781 880.417969 C 608.648438 884.191406 601.101562 872.871094 601.101562 872.871094 C 578.453125 853.996094 559.578125 827.574219 552.03125 797.378906 C 552.03125 789.828125 536.933594 789.828125 536.933594 789.828125 Z M 536.933594 789.828125 " fill-opacity="1" fill-rule="evenodd"/></svg>